<svg width="512" height="512" viewBox="0 0 512 512" fill="none" xmlns="http://www.w3.org/2000/svg">
  <rect width="512" height="512" rx="112" fill="#16452f"/>
  <rect x="80" y="96" width="352" height="320" rx="48" fill="#fbf8ee"/>
  <path d="M144 150c0-15 12-27 27-27h65c18 0 33 15 33 33v205c0 8-10 12-16 7-13-11-30-18-47-18h-35c-15 0-27-12-27-27V150Z" fill="#fffaf0" stroke="#b68a2c" stroke-width="20"/>
  <path d="M368 150c0-15-12-27-27-27h-65c-18 0-33 15-33 33v205c0 8 10 12 16 7 13-11 30-18 47-18h35c15 0 27-12 27-27V150Z" fill="#fffaf0" stroke="#b68a2c" stroke-width="20"/>
  <path d="M172 188h56M172 232h56M284 188h56M284 232h56" stroke="#8a5a35" stroke-width="18" stroke-linecap="round"/>
  <path d="M256 140v238" stroke="#b68a2c" stroke-width="18" stroke-linecap="round"/>
</svg>
